<svg width="55" height="39" viewBox="0 0 55 39" fill="none" xmlns="http://www.w3.org/2000/svg">
<path d="M53.4675 5.96981C52.8382 3.61875 50.9905 1.77116 48.6394 1.14181C44.3825 3.41788e-07 27.3046 0 27.3046 0C27.3046 0 10.2269 3.41788e-07 5.96979 1.14181C3.61875 1.77116 1.77116 3.61875 1.14181 5.96981C3.41788e-07 10.2269 0 19.1142 0 19.1142C0 19.1142 3.41788e-07 28.0015 1.14181 32.2586C1.77116 34.6096 3.61875 36.4572 5.96979 37.0864C10.2269 38.2283 27.3046 38.2283 27.3046 38.2283C27.3046 38.2283 44.3825 38.2283 48.6394 37.0864C50.9905 36.4572 52.8382 34.6096 53.4675 32.2586C54.6093 28.0015 54.6093 19.1142 54.6093 19.1142C54.6093 19.1142 54.6048 10.2269 53.4675 5.96981Z" fill="#FF0000"/>
<path d="M20.0332 6.68906H34.9335L32.408 24.1148H22.5587L20.0332 6.68906Z" fill="#F1F1F1"/>
<path d="M27.4833 31.4386L14.6886 20.2635L40.2779 20.2635L27.4833 31.4386Z" fill="#F1F1F1"/>
</svg>
