<svg width="595" height="115" viewBox="0 0 595 115" fill="none" xmlns="http://www.w3.org/2000/svg">
<path d="M159.865 17.8494C157.984 10.8199 152.459 5.29569 145.429 3.41397C132.701 1.02193e-06 81.6393 0 81.6393 0C81.6393 0 30.5779 1.02193e-06 17.8494 3.41397C10.8199 5.29569 5.29569 10.8199 3.41397 17.8494C1.02193e-06 30.5779 0 57.1504 0 57.1504C0 57.1504 1.02193e-06 83.723 3.41397 96.4516C5.29569 103.481 10.8199 109.005 17.8494 110.887C30.5779 114.301 81.6393 114.301 81.6393 114.301C81.6393 114.301 132.701 114.301 145.429 110.887C152.459 109.005 157.984 103.481 159.865 96.4516C163.279 83.723 163.279 57.1504 163.279 57.1504C163.279 57.1504 163.265 30.5779 159.865 17.8494Z" fill="#FF0000"/>
<path d="M59.898 20H104.449L96.898 72.102H67.449L59.898 20Z" fill="#F1F1F1"/>
<path d="M82.1735 94L43.9181 60.5867L120.429 60.5867L82.1735 94Z" fill="#F1F1F1"/>
<path d="M185.126 95C184.806 95 184.518 94.904 184.262 94.712C184.07 94.456 183.974 94.168 183.974 93.848V28.952C183.974 28.632 184.07 28.376 184.262 28.184C184.518 27.928 184.806 27.8 185.126 27.8H202.502C208.326 27.8 212.998 29.496 216.518 32.888C220.038 36.28 221.798 40.792 221.798 46.424V76.376C221.798 82.008 220.038 86.52 216.518 89.912C212.998 93.304 208.326 95 202.502 95H185.126ZM197.51 82.904C197.51 83.224 197.67 83.384 197.99 83.384L202.31 83.288C204.038 83.224 205.446 82.488 206.534 81.08C207.622 79.672 208.198 77.816 208.262 75.512V47.288C208.262 44.856 207.718 42.936 206.63 41.528C205.542 40.12 204.07 39.416 202.214 39.416H197.99C197.67 39.416 197.51 39.576 197.51 39.896V82.904ZM246.622 95.768C240.926 95.768 236.446 94.328 233.182 91.448C229.982 88.568 228.382 84.632 228.382 79.64V61.016C228.382 56.152 230.014 52.248 233.278 49.304C236.542 46.36 240.99 44.888 246.622 44.888C252.318 44.888 256.798 46.36 260.062 49.304C263.326 52.248 264.958 56.152 264.958 61.016V79.64C264.958 84.632 263.326 88.568 260.062 91.448C256.862 94.328 252.382 95.768 246.622 95.768ZM246.622 84.056C248.03 84.056 249.182 83.544 250.078 82.52C250.974 81.496 251.422 80.184 251.422 78.584V61.976C251.422 60.376 250.974 59.064 250.078 58.04C249.182 57.016 248.03 56.504 246.622 56.504C245.214 56.504 244.062 57.016 243.166 58.04C242.334 59.064 241.918 60.376 241.918 61.976V78.584C241.918 80.184 242.334 81.496 243.166 82.52C244.062 83.544 245.214 84.056 246.622 84.056ZM279.527 95C278.823 95 278.407 94.648 278.279 93.944L267.911 46.808V46.424C267.911 45.848 268.263 45.56 268.967 45.56H279.623C280.391 45.56 280.807 45.912 280.871 46.616L284.999 72.92C285.063 73.112 285.159 73.208 285.287 73.208C285.415 73.208 285.511 73.112 285.575 72.92L289.799 46.616C289.863 45.912 290.279 45.56 291.047 45.56H300.551C301.319 45.56 301.735 45.912 301.799 46.616L306.311 73.016C306.375 73.208 306.471 73.304 306.599 73.304C306.727 73.24 306.823 73.112 306.887 72.92L310.919 46.616C310.983 45.912 311.399 45.56 312.167 45.56L322.727 45.752C323.559 45.752 323.879 46.168 323.687 47L313.415 93.944C313.287 94.648 312.871 95 312.167 95H301.223C300.455 95 300.039 94.648 299.975 93.944L295.847 69.56C295.783 69.368 295.687 69.272 295.559 69.272C295.431 69.272 295.335 69.368 295.271 69.56L291.335 93.944C291.271 94.648 290.855 95 290.087 95H279.527ZM351.842 44.888C356.194 44.888 359.458 46.328 361.634 49.208C363.81 52.088 364.898 56.12 364.898 61.304V93.848C364.898 94.168 364.77 94.456 364.514 94.712C364.322 94.904 364.066 95 363.746 95H352.514C352.194 95 351.906 94.904 351.65 94.712C351.458 94.456 351.362 94.168 351.362 93.848V62.36C351.362 60.504 350.978 59.064 350.21 58.04C349.506 57.016 348.45 56.504 347.042 56.504C345.57 56.504 344.418 57.048 343.586 58.136C342.818 59.16 342.434 60.632 342.434 62.552V93.848C342.434 94.168 342.306 94.456 342.05 94.712C341.858 94.904 341.602 95 341.282 95H330.05C329.73 95 329.442 94.904 329.186 94.712C328.994 94.456 328.898 94.168 328.898 93.848V46.808C328.898 46.488 328.994 46.232 329.186 46.04C329.442 45.784 329.73 45.656 330.05 45.656H341.282C341.602 45.656 341.858 45.784 342.05 46.04C342.306 46.232 342.434 46.488 342.434 46.808V48.632C342.434 48.824 342.498 48.92 342.626 48.92C342.818 48.92 343.042 48.792 343.298 48.536C345.346 46.104 348.194 44.888 351.842 44.888ZM372.604 95C372.284 95 371.996 94.904 371.74 94.712C371.548 94.456 371.452 94.168 371.452 93.848V28.952C371.452 28.632 371.548 28.376 371.74 28.184C371.996 27.928 372.284 27.8 372.604 27.8H383.836C384.156 27.8 384.412 27.928 384.604 28.184C384.86 28.376 384.988 28.632 384.988 28.952V93.848C384.988 94.168 384.86 94.456 384.604 94.712C384.412 94.904 384.156 95 383.836 95H372.604ZM409.466 95.768C403.77 95.768 399.29 94.328 396.026 91.448C392.826 88.568 391.226 84.632 391.226 79.64V61.016C391.226 56.152 392.858 52.248 396.122 49.304C399.386 46.36 403.834 44.888 409.466 44.888C415.162 44.888 419.642 46.36 422.906 49.304C426.17 52.248 427.802 56.152 427.802 61.016V79.64C427.802 84.632 426.17 88.568 422.906 91.448C419.706 94.328 415.226 95.768 409.466 95.768ZM409.466 84.056C410.874 84.056 412.026 83.544 412.922 82.52C413.818 81.496 414.266 80.184 414.266 78.584V61.976C414.266 60.376 413.818 59.064 412.922 58.04C412.026 57.016 410.874 56.504 409.466 56.504C408.058 56.504 406.906 57.016 406.01 58.04C405.178 59.064 404.762 60.376 404.762 61.976V78.584C404.762 80.184 405.178 81.496 406.01 82.52C406.906 83.544 408.058 84.056 409.466 84.056ZM452.223 44.888C457.663 44.888 462.079 46.36 465.471 49.304C468.863 52.248 470.559 56.12 470.559 60.92V93.848C470.559 94.168 470.431 94.456 470.175 94.712C469.983 94.904 469.727 95 469.407 95H458.175C457.855 95 457.567 94.904 457.311 94.712C457.119 94.456 457.023 94.168 457.023 93.848V91.736C457.023 91.544 456.959 91.416 456.831 91.352C456.703 91.288 456.575 91.352 456.447 91.544C454.335 94.232 451.071 95.64 446.655 95.768C442.943 95.768 439.711 94.744 436.959 92.696C434.271 90.648 432.927 86.744 432.927 80.984C432.927 75.032 434.559 70.936 437.823 68.696C441.151 66.456 445.919 65.336 452.127 65.336H456.543C456.863 65.336 457.023 65.176 457.023 64.856V62.456C457.023 60.728 456.543 59.32 455.583 58.232C454.687 57.08 453.535 56.504 452.127 56.504C451.039 56.504 450.111 56.856 449.343 57.56C448.639 58.2 448.191 59.128 447.999 60.344C447.935 61.112 447.519 61.496 446.751 61.496L435.231 61.4C434.463 61.4 434.079 61.016 434.079 60.248C434.399 55.576 436.223 51.864 439.551 49.112C442.879 46.296 447.103 44.888 452.223 44.888ZM451.263 85.304C452.735 85.304 454.047 84.824 455.199 83.864C456.415 82.84 457.023 81.496 457.023 79.832V75.32C457.023 75 456.863 74.84 456.543 74.84H452.607C450.879 74.84 449.471 75.352 448.383 76.376C447.359 77.336 446.847 78.68 446.847 80.408C446.847 82.008 447.231 83.224 447.999 84.056C448.831 84.888 449.919 85.304 451.263 85.304ZM499.099 28.952C499.099 28.632 499.195 28.376 499.387 28.184C499.643 27.928 499.931 27.8 500.251 27.8H511.483C511.803 27.8 512.059 27.928 512.251 28.184C512.507 28.376 512.635 28.632 512.635 28.952V93.848C512.635 94.168 512.507 94.456 512.251 94.712C512.059 94.904 511.803 95 511.483 95H500.251C499.931 95 499.643 94.904 499.387 94.712C499.195 94.456 499.099 94.168 499.099 93.848V92.312C499.099 92.12 499.035 92.024 498.906 92.024C498.779 91.96 498.651 91.992 498.523 92.12C496.347 94.552 493.467 95.768 489.883 95.768C485.467 95.768 482.139 94.36 479.898 91.544C477.659 88.664 476.539 84.696 476.539 79.64V61.016C476.539 55.832 477.659 51.864 479.898 49.112C482.203 46.296 485.531 44.888 489.883 44.888C491.291 44.888 492.763 45.176 494.299 45.752C495.835 46.264 497.243 47.224 498.523 48.632C498.651 48.76 498.779 48.824 498.906 48.824C499.035 48.76 499.099 48.632 499.099 48.44V28.952ZM494.587 84.152C495.739 84.152 496.731 83.768 497.562 83C498.395 82.232 498.907 81.208 499.099 79.928V60.728C498.907 59.448 498.395 58.424 497.562 57.656C496.731 56.888 495.739 56.504 494.587 56.504C493.243 56.504 492.155 57.016 491.323 58.04C490.491 59.064 490.075 60.376 490.075 61.976V78.68C490.075 80.28 490.491 81.592 491.323 82.616C492.155 83.64 493.243 84.152 494.587 84.152ZM555.577 73.4C555.577 73.72 555.449 74.008 555.193 74.264C555.001 74.456 554.745 74.552 554.425 74.552H533.305C532.985 74.552 532.825 74.712 532.825 75.032V78.584C532.825 80.184 533.241 81.528 534.073 82.616C534.969 83.64 536.089 84.152 537.433 84.152C538.649 84.152 539.641 83.768 540.409 83C541.177 82.168 541.689 81.144 541.945 79.928C542.137 79.288 542.553 78.968 543.193 78.968L554.233 79.544C554.553 79.544 554.809 79.672 555.001 79.928C555.257 80.12 555.353 80.408 555.289 80.792C554.841 85.72 553.113 89.464 550.105 92.024C547.161 94.52 542.937 95.768 537.433 95.768C531.737 95.768 527.289 94.36 524.089 91.544C520.889 88.664 519.289 84.696 519.289 79.64V61.016C519.289 56.152 520.889 52.248 524.089 49.304C527.352 46.36 531.801 44.888 537.433 44.888C543.065 44.888 547.481 46.36 550.681 49.304C553.945 52.248 555.577 56.152 555.577 61.016V73.4ZM537.433 56.504C536.089 56.504 534.969 57.016 534.073 58.04C533.241 59.064 532.825 60.376 532.825 61.976V65.72C532.825 66.04 532.985 66.2 533.305 66.2H541.561C541.881 66.2 542.041 66.04 542.041 65.72V61.976C542.041 60.376 541.593 59.064 540.697 58.04C539.865 57.016 538.777 56.504 537.433 56.504ZM583.853 45.08C585.581 45.08 586.925 45.4 587.885 46.04C588.397 46.36 588.589 46.84 588.461 47.48L586.637 58.712C586.573 59.416 586.125 59.672 585.293 59.48C584.589 59.224 583.725 59.096 582.701 59.096C581.741 59.096 580.909 59.224 580.205 59.48C578.733 59.736 577.549 60.632 576.653 62.168C575.757 63.64 575.309 65.368 575.309 67.352V93.752C575.309 94.072 575.181 94.36 574.925 94.616C574.733 94.808 574.477 94.904 574.157 94.904H562.925C562.605 94.904 562.317 94.808 562.061 94.616C561.869 94.36 561.773 94.072 561.773 93.752V46.808C561.773 46.488 561.869 46.232 562.061 46.04C562.317 45.784 562.605 45.656 562.925 45.656H574.157C574.477 45.656 574.733 45.784 574.925 46.04C575.181 46.232 575.309 46.488 575.309 46.808V50.552C575.309 50.808 575.341 50.968 575.405 51.032C575.533 51.032 575.661 50.936 575.789 50.744C577.517 46.968 580.205 45.08 583.853 45.08Z" fill="white"/>
</svg>
